#!OML:ASF X:\für Bonn\!DataBase\2005_08_11_Bastian_Final\c3d\Bastian.ASF
:FULLY-SPECIFIED
:DEGREES
61
root 4.29893 17.7304 -4.24314 131.945 16.1209 -186.004
lowerback 44.7428 -4.34119 -0.821153
upperback 18.1867 1.70353 -4.41756
thorax -0.292616 4.51225 -4.91477
lowerneck -15.7723 -2.62622 7.21416
upperneck -2.35922 -4.18723 -1.09957
head 1.77279 -1.93236 -1.87369
rclavicle 2.77056e-014 1.3418e-014
rhumerus 25.4321 40.2183 -73.9209
rradius 116.132
rwrist -1.43262
rhand -22.5803 7.39933
rfingers 7.12502
rthumb 3.84835 -22.5457
lclavicle 2.77056e-014 1.3418e-014
lhumerus -62.8111 -20.3659 88.0827
lradius 115.043
lwrist 41.8433
lhand -7.19923 -32.0922
lfingers 7.12502
lthumb 18.6792 -2.96904
rfemur 29.1459 -0.823962 14.7956
rtibia 41.2317
rfoot 9.32465 14.4513
rtoes 12.9097
lfemur -75.27 28.6384 -9.80071
ltibia 97.4655
lfoot 9.14438 -20.4515
ltoes -44.6256
62
root 4.31304 17.8207 -4.26796 131.222 16.8434 -186.495
lowerback 45.192 -4.08258 -1.11513
upperback 18.6341 2.21479 -4.71456
thorax 0.15906 4.92082 -5.24352
lowerneck -16.1376 -2.73481 7.06385
upperneck -2.35312 -4.31646 -0.959852
head 1.83802 -1.98202 -1.81753
rclavicle -9.17515e-015 1.12562e-014
rhumerus 25.216 39.9998 -73.8322
rradius 115.927
rwrist -1.39692
rhand -22.1633 7.34103
rfingers 7.12502
rthumb 4.25111 -22.5963
lclavicle -9.17515e-015 1.12562e-014
lhumerus -62.8202 -19.6275 87.9525
lradius 117.164
lwrist 40.8116
lhand -6.18187 -31.8259
lfingers 7.12502
lthumb 19.6575 -2.79974
rfemur 29.4992 -0.0488186 14.5877
rtibia 40.753
rfoot 12.7445 15.0091
rtoes 13.7883
lfemur -75.2741 27.7215 -8.98115
ltibia 90.1006
lfoot 12.4445 -18.8933
ltoes -43.2848
63
root 4.32862 17.9081 -4.28713 130.56 17.4848 -187.042
lowerback 45.4576 -3.83534 -1.46079
upperback 19.1299 2.70051 -5.03952
thorax 0.718534 5.32024 -5.55213
lowerneck -16.5305 -2.84986 6.86951
upperneck -2.39255 -4.44093 -0.843519
head 1.89381 -2.02867 -1.76115
rclavicle -1.18028e-014 -2.2413e-014
rhumerus 24.876 39.78 -73.8177
rradius 115.712
rwrist -1.36099
rhand -21.6526 7.39957
rfingers 7.12502
rthumb 4.74424 -22.5273
lclavicle -1.18028e-014 -2.2413e-014
lhumerus -62.4826 -18.8821 87.8587
lradius 119.196
lwrist 39.7977
lhand -5.20402 -31.6273
lfingers 7.12502
lthumb 20.5974 -2.70012
rfemur 29.8503 0.742478 14.349
rtibia 40.1073
rfoot 16.0014 15.5162
rtoes 14.2749
lfemur -74.7035 26.8619 -7.92171
ltibia 82.3142
lfoot 15.2721 -16.6551
ltoes -43.4844
64
root 4.34545 17.9719 -4.31918 129.94 17.965 -187.696
lowerback 45.5229 -3.5641 -1.91964
upperback 19.6595 3.18219 -5.41037
thorax 1.37622 5.71676 -5.83365
lowerneck -16.9723 -3.00121 6.64159
upperneck -2.38801 -4.61056 -0.720995
head 1.97272 -2.09624 -1.70233
rclavicle 2.02015e-014 2.20651e-014
rhumerus 24.3776 39.5214 -73.9423
rradius 115.523
rwrist -1.36158
rhand -21.0801 7.48986
rfingers 7.12502
rthumb 5.29704 -22.4239
lclavicle 2.02015e-014 2.20651e-014
lhumerus -61.9204 -18.2523 87.8293
lradius 121.181
lwrist 38.7905
lhand -4.36059 -31.464
lfingers 7.12502
lthumb 21.4077 -2.6267
rfemur 30.2643 1.54317 13.9418
rtibia 39.3527
rfoot 18.8419 16.0741
rtoes 14.5174
lfemur -73.5361 25.9752 -6.79753
ltibia 74.1239
lfoot 17.2942 -13.8972
ltoes -44.4119
65
root 4.3665 18.0387 -4.34355 129.355 18.2863 -188.436
lowerback 45.4421 -3.2593 -2.54194
upperback 20.177 3.63266 -5.77834
thorax 2.06284 6.07551 -6.00534
lowerneck -17.3499 -3.14773 6.383
upperneck -2.35644 -4.76667 -0.653513
head 2.05064 -2.16114 -1.65504
rclavicle -1.19271e-014 -9.93923e-015
rhumerus 23.7774 39.3521 -74.1292
rradius 115.287
rwrist -1.3524
rhand -20.4455 7.65341
rfingers 7.12502
rthumb 5.90973 -22.2442
lclavicle -1.19271e-014 -9.93923e-015
lhumerus -61.2371 -17.6617 87.9123
lradius 123.062
lwrist 37.8501
lhand -3.70747 -31.4063
lfingers 7.12502
lthumb 22.0348 -2.64154
rfemur 30.7732 2.25776 13.3511
rtibia 38.436
rfoot 21.1057 16.8335
rtoes 14.4683
lfemur -72.0351 24.8284 -5.40562
ltibia 65.856
lfoot 17.6623 -11.1788
ltoes -44.8484
66
root 4.3923 18.1087 -4.35551 128.777 18.5959 -189.191
lowerback 45.3671 -2.90083 -3.17453
upperback 20.5986 4.1097 -6.10705
thorax 2.64619 6.42124 -6.14239
lowerneck -17.5266 -3.32457 6.0672
upperneck -2.30449 -4.94906 -0.614599
head 2.10033 -2.24559 -1.60411
rclavicle 1.07344e-014 2.0276e-014
rhumerus 22.9066 39.2085 -74.5167
rradius 115.018
rwrist -1.37694
rhand -19.7407 7.8057
rfingers 7.12502
rthumb 6.59012 -22.0718
lclavicle 1.07344e-014 2.0276e-014
lhumerus -60.4957 -17.237 88.0814
lradius 124.774
lwrist 37.0095
lhand -3.27491 -31.4758
lfingers 7.12502
lthumb 22.4501 -2.76058
rfemur 31.3553 2.88335 12.7515
rtibia 37.4388
rfoot 22.745 17.8843
rtoes 14.0861
lfemur -70.1453 23.654 -3.60724
ltibia 57.6377
lfoot 16.9997 -8.18498
ltoes -43.9994
67
root 4.41636 18.1707 -4.36518 128.215 19.068 -189.878
lowerback 45.3846 -2.53829 -3.64982
upperback 20.894 4.59371 -6.41223
thorax 3.06436 6.75423 -6.35214
lowerneck -17.5378 -3.49544 5.77723
upperneck -2.17787 -5.13239 -0.630692
head 2.14536 -2.3385 -1.5735
rclavicle -5.06901e-015 -2.04748e-014
rhumerus 21.7818 39.1498 -75.1248
rradius 114.686
rwrist -1.44846
rhand -19.008 7.96523
rfingers 7.12502
rthumb 7.29747 -21.8889
lclavicle -5.06901e-015 -2.04748e-014
lhumerus -59.7061 -16.9597 88.2111
lradius 126.311
lwrist 36.2603
lhand -3.08021 -31.6515
lfingers 7.12502
lthumb 22.637 -2.95896
rfemur 32.0206 3.55917 12.4362
rtibia 36.333
rfoot 23.938 18.8586
rtoes 13.6301
lfemur -67.6739 22.1793 -0.91731
ltibia 49.6456
lfoot 14.5323 -3.91772
ltoes -40.5441
68
root 4.43296 18.217 -4.37966 127.829 19.8444 -190.422
lowerback 45.4786 -2.16756 -3.83485
upperback 21.0076 5.08244 -6.64411
thorax 3.24852 7.05624 -6.6582
lowerneck -17.4094 -3.66279 5.37344
upperneck -1.91985 -5.30309 -0.592154
head 2.21593 -2.42832 -1.50338
rclavicle 8.44835e-014 -2.98177e-014
rhumerus 20.4647 39.1719 -75.8898
rradius 114.248
rwrist -1.61151
rhand -18.2413 8.08475
rfingers 7.12502
rthumb 8.03747 -21.7424
lclavicle 8.44835e-014 -2.98177e-014
lhumerus -58.896 -16.7328 88.3913
lradius 127.643
lwrist 35.4591
lhand -3.08755 -31.946
lfingers 7.12502
lthumb 22.6299 -3.25258
rfemur 32.5798 4.41787 12.6776
rtibia 35.2529
rfoot 24.6495 19.6305
rtoes 12.9895
lfemur -64.7048 20.1282 3.03492
ltibia 42.0686
lfoot 10.2783 2.01902
ltoes -36.0572
69
root 4.44192 18.2595 -4.38627 127.443 20.8806 -190.988
lowerback 45.6555 -1.77455 -3.85357
upperback 21.0461 5.61784 -6.87098
thorax 3.3342 7.37968 -7.07415
lowerneck -17.3245 -3.83372 4.92312
upperneck -1.52182 -5.48332 -0.542479
head 2.34487 -2.52381 -1.42734
rclavicle 3.65764e-014 6.0033e-014
rhumerus 19.1631 39.1811 -76.6668
rradius 113.706
rwrist -1.84724
rhand -17.448 8.06204
rfingers 7.12502
rthumb 8.80299 -21.7344
lclavicle 3.65764e-014 6.0033e-014
lhumerus -57.7222 -16.5316 88.5128
lradius 128.754
lwrist 34.6812
lhand -3.20054 -32.0811
lfingers 7.12502
lthumb 22.5215 -3.37455
rfemur 33.0481 5.4588 13.2575
rtibia 34.3122
rfoot 24.8787 20.4071
rtoes 12.0123
lfemur -61.4313 17.1869 8.51089
ltibia 35.2202
lfoot 4.09486 9.481
ltoes -34.5771
70
root 4.44397 18.286 -4.40127 126.864 22.0319 -191.649
lowerback 45.9981 -1.36998 -3.8392
upperback 21.0359 6.16972 -7.13905
thorax 3.33726 7.723 -7.57592
lowerneck -17.1191 -3.98193 4.45966
upperneck -1.14548 -5.62846 -0.479503
head 2.44752 -2.6041 -1.33845
rclavicle 1.98785e-014 8.18993e-014
rhumerus 17.8595 39.1893 -77.5211
rradius 113.024
rwrist -2.18144
rhand -16.6516 7.93319
rfingers 7.12502
rthumb 9.57151 -21.8294
lclavicle 1.98785e-014 8.18993e-014
lhumerus -56.2408 -16.3781 88.5588
lradius 129.717
lwrist 33.8073
lhand -3.53716 -32.0447
lfingers 7.12502
lthumb 22.1984 -3.29935
rfemur 33.591 6.55651 13.8494
rtibia 33.6132
rfoot 24.7059 21.176
rtoes 11.3725
lfemur -57.8952 12.7488 15.6279
ltibia 29.2457
lfoot -4.15906 18.6538
ltoes -33.5614
